<?xml version="1.0" encoding="utf-8"?>
<!-- Generator: Adobe Illustrator 17.1.0, SVG Export Plug-In . SVG Version: 6.00 Build 0)  -->
<!DOCTYPE svg PUBLIC "-//W3C//DTD SVG 1.1//EN" "http://www.w3.org/Graphics/SVG/1.1/DTD/svg11.dtd">
<svg version="1.1" id="outlines" xmlns="http://www.w3.org/2000/svg" xmlns:xlink="http://www.w3.org/1999/xlink" x="0px" y="0px"
	 viewBox="0 0 950 104" enable-background="new 0 0 950 104" xml:space="preserve">
<g>
	<polygon fill="#222224" points="63.8,49.8 87.9,25.7 88.6,25 87.9,24.3 79.2,15.6 78.5,14.8 77.8,15.6 53.7,39.6 29.6,15.6 
		28.9,14.8 28.2,15.6 19.5,24.3 18.8,25 19.5,25.7 43.6,49.8 19.5,73.8 18.8,74.5 19.5,75.2 28.2,84 28.9,84.7 29.6,84 53.7,59.9 
		77.8,84 78.5,84.7 79.2,84 87.9,75.2 88.6,74.5 87.9,73.8 	"/>
	<polygon fill="#222224" points="187.9,16.7 175.7,16.7 175.1,16.7 174.6,16.7 174.3,17.2 174,17.7 159.5,42.6 144.8,17.7 
		144.5,17.2 144.2,16.7 143.7,16.7 143.1,16.7 130.5,16.7 128.7,16.7 126.9,16.7 127.8,18.2 128.8,19.8 151.8,57 151.8,80.8 
		151.8,81.8 151.8,82.8 152.8,82.8 153.8,82.8 164.7,82.8 165.7,82.8 166.7,82.8 166.7,81.8 166.7,80.8 166.7,57 189.6,19.7 
		190.5,18.2 191.5,16.7 189.7,16.7 	"/>
	<path fill="#222224" d="M251.5,25.6c-2.7-3.2-6.1-5.7-10-7.5c-3.9-1.9-8.4-2.8-13.3-2.8c-4.9,0-9.4,0.9-13.3,2.8
		c-3.9,1.9-7.3,4.4-10,7.5c-2.7,3.1-4.8,6.8-6.2,11c-1.4,4.1-2.2,8.6-2.2,13.2c0,4.7,0.7,9.1,2.2,13.3c1.4,4.2,3.5,7.9,6.2,11
		c2.7,3.2,6.1,5.7,10,7.5c3.9,1.8,8.4,2.8,13.3,2.8c4.9,0,9.4-0.9,13.3-2.8c3.9-1.8,7.3-4.3,10-7.5c2.7-3.1,4.8-6.8,6.2-11
		c1.4-4.1,2.2-8.6,2.2-13.3c0-4.6-0.7-9-2.2-13.2C256.3,32.4,254.2,28.7,251.5,25.6z M235.7,69.7c-2.1,1.2-4.7,1.8-7.6,1.8
		c-2.9,0-5.5-0.6-7.6-1.7c-2.1-1.2-3.9-2.8-5.2-4.7c-1.4-2-2.4-4.4-3.1-7c-0.7-2.7-1-5.4-1-8.2c0-2.8,0.3-5.5,1-8.2
		c0.7-2.6,1.7-5,3.1-7c1.3-2,3.1-3.5,5.2-4.7c2.1-1.2,4.7-1.8,7.6-1.8c2.9,0,5.5,0.6,7.6,1.8c2.1,1.2,3.9,2.8,5.2,4.7
		c1.4,2,2.4,4.4,3.1,7c0.7,2.7,1,5.4,1,8.2c0,2.8-0.3,5.5-1,8.2c-0.7,2.6-1.7,5-3.1,7C239.6,66.9,237.9,68.5,235.7,69.7z"/>
	<path fill="#222224" d="M325.8,16.7h-10.9h-1h-1v1v1v36.2c0,2-0.1,4.1-0.3,6.2c-0.2,1.9-0.7,3.5-1.5,5c-0.8,1.4-2,2.5-3.6,3.5
		c-1.6,0.9-4.1,1.4-7.2,1.4c-3.2,0-5.6-0.5-7.2-1.4c-1.6-0.9-2.8-2.1-3.6-3.5c-0.8-1.5-1.3-3.1-1.5-5c-0.2-2.1-0.3-4.1-0.3-6.2V18.7
		v-1v-1h-1h-1h-10.9h-1h-1v1v1v39.8c0,4.2,0.7,8,2,11.2c1.3,3.2,3.2,6,5.7,8.2c2.4,2.2,5.4,3.8,8.8,4.9c3.3,1,7,1.6,11,1.6
		c4,0,7.7-0.5,11-1.6c3.4-1.1,6.3-2.7,8.8-4.9c2.4-2.2,4.4-4.9,5.7-8.2c1.3-3.2,2-7,2-11.2V18.7v-1v-1h-1H325.8z"/>
	<path fill="#222224" d="M433.9,80.1L410,18l-0.2-0.6l-0.2-0.6h-0.7h-0.7h-11.6h-0.7h-0.7l-0.2,0.6l-0.2,0.6l-23.8,62.1l-0.5,1.4
		l-0.5,1.4h1.5h1.5h11.2h0.7h0.7l0.2-0.7l0.2-0.7l5.4-15.1h22l5.4,15.1l0.2,0.7l0.2,0.7h0.7h0.7H432h1.5h1.5l-0.5-1.4L433.9,80.1z
		 M408.8,54.1h-13.3l6.7-19L408.8,54.1z"/>
	<path fill="#222224" d="M508,79.5c-0.6-0.7-1.5-2.2-2.1-5.4c-0.5-2.8-0.8-6.1-0.8-9.6c0-2.7-0.4-5-1-6.8c-0.7-1.9-1.6-3.4-2.7-4.6
		c-0.8-0.9-1.6-1.6-2.5-2.1c0.8-0.5,1.6-1.2,2.4-2c1.3-1.4,2.5-3.1,3.4-5.3c1-2.2,1.5-4.9,1.5-8.2c0-5.9-2-10.5-5.8-13.9
		c-3.8-3.3-9.4-4.9-16.7-4.9H454h-1h-1v1v1v62.1v1v1h1h1h10.9h1h1v-1v-1V57.2h14c2.2,0,4,0.3,5.4,0.8c1.2,0.5,2.2,1.2,2.9,2.3
		c0.8,1.1,1.3,2.6,1.6,4.3c0.3,1.9,0.5,4.3,0.5,7c0,1.6,0.1,3.2,0.2,4.9c0.2,1.9,0.7,3.7,1.7,5.3l0.3,0.5l0.3,0.5h0.6h0.6h11.7h2.3
		h2.3l-1.5-1.7L508,79.5z M466.9,29.6h15.7c1.3,0,2.5,0.1,3.7,0.3c1,0.2,1.9,0.5,2.7,1.1c0.7,0.5,1.3,1.2,1.7,2.1
		c0.5,1,0.7,2.3,0.7,4c0,2.7-0.7,4.7-2.1,6c-1.4,1.3-3.6,2-6.6,2h-15.8V29.6z"/>
	<polygon fill="#222224" points="575.6,69.4 543.2,69.4 543.2,55.2 572.5,55.2 573.5,55.2 574.5,55.2 574.5,54.2 574.5,53.2 
		574.5,44.4 574.5,43.4 574.5,42.4 573.5,42.4 572.5,42.4 543.2,42.4 543.2,30.1 575,30.1 576,30.1 577,30.1 577,29.1 577,28.1 
		577,18.7 577,17.7 577,16.7 576,16.7 575,16.7 530.3,16.7 529.3,16.7 528.3,16.7 528.3,17.7 528.3,18.7 528.3,80.8 528.3,81.8 
		528.3,82.8 529.3,82.8 530.3,82.8 575.6,82.8 576.6,82.8 577.6,82.8 577.6,81.8 577.6,80.8 577.6,71.4 577.6,70.4 577.6,69.4 
		576.6,69.4 	"/>
	<polygon fill="#222224" points="685.1,16.7 674.3,16.7 673.3,16.7 672.3,16.7 672.3,17.7 672.3,18.7 672.3,41.4 648,41.4 648,18.7 
		648,17.7 648,16.7 647,16.7 646,16.7 635.1,16.7 634.1,16.7 633.1,16.7 633.1,17.7 633.1,18.7 633.1,80.8 633.1,81.8 633.1,82.8 
		634.1,82.8 635.1,82.8 646,82.8 647,82.8 648,82.8 648,81.8 648,80.8 648,54.8 672.3,54.8 672.3,80.8 672.3,81.8 672.3,82.8 
		673.3,82.8 674.3,82.8 685.1,82.8 686.1,82.8 687.1,82.8 687.1,81.8 687.1,80.8 687.1,18.7 687.1,17.7 687.1,16.7 686.1,16.7 	"/>
	<polygon fill="#222224" points="758.6,69.4 726.1,69.4 726.1,55.2 755.4,55.2 756.4,55.2 757.4,55.2 757.4,54.2 757.4,53.2 
		757.4,44.4 757.4,43.4 757.4,42.4 756.4,42.4 755.4,42.4 726.1,42.4 726.1,30.1 758,30.1 759,30.1 760,30.1 760,29.1 760,28.1 
		760,18.7 760,17.7 760,16.7 759,16.7 758,16.7 713.2,16.7 712.2,16.7 711.2,16.7 711.2,17.7 711.2,18.7 711.2,80.8 711.2,81.8 
		711.2,82.8 712.2,82.8 713.2,82.8 758.6,82.8 759.6,82.8 760.6,82.8 760.6,81.8 760.6,80.8 760.6,71.4 760.6,70.4 760.6,69.4 
		759.6,69.4 	"/>
	<path fill="#222224" d="M840.1,79.5c-0.6-0.7-1.5-2.2-2.1-5.4c-0.5-2.9-0.8-6.1-0.8-9.6c0-2.7-0.4-5-1-6.8
		c-0.7-1.9-1.6-3.4-2.7-4.6c-0.8-0.9-1.6-1.6-2.5-2.1c0.8-0.5,1.6-1.2,2.4-2c1.3-1.4,2.5-3.1,3.4-5.3c1-2.2,1.5-4.9,1.5-8.2
		c0-5.9-2-10.5-5.8-13.9c-3.8-3.3-9.4-4.9-16.7-4.9h-29.7h-1h-1v1v1v62.1v1v1h1h1H797h1h1v-1v-1V57.2h14c2.2,0,4,0.3,5.4,0.8
		c1.2,0.5,2.2,1.2,2.9,2.3c0.8,1.1,1.3,2.6,1.6,4.3c0.3,1.9,0.5,4.3,0.5,7c0,1.6,0.1,3.2,0.2,4.9c0.2,1.9,0.7,3.7,1.7,5.3l0.3,0.5
		l0.3,0.5h0.6h0.6h11.7h2.3h2.3l-1.5-1.7L840.1,79.5z M799,29.6h15.7c1.3,0,2.5,0.1,3.7,0.3c1,0.2,1.9,0.5,2.7,1.1
		c0.7,0.5,1.3,1.2,1.7,2.1c0.5,1,0.7,2.3,0.7,4c0,2.7-0.7,4.7-2.1,6c-1.4,1.3-3.6,2-6.6,2H799V29.6z"/>
	<polygon fill="#222224" points="909.7,69.4 908.7,69.4 876.3,69.4 876.3,55.2 905.6,55.2 906.6,55.2 907.6,55.2 907.6,54.2 
		907.6,53.2 907.6,44.4 907.6,43.4 907.6,42.4 906.6,42.4 905.6,42.4 876.3,42.4 876.3,30.1 908.1,30.1 909.1,30.1 910.1,30.1 
		910.1,29.1 910.1,28.1 910.1,18.7 910.1,17.7 910.1,16.7 909.1,16.7 908.1,16.7 863.4,16.7 862.4,16.7 861.4,16.7 861.4,17.7 
		861.4,18.7 861.4,80.8 861.4,81.8 861.4,82.8 862.4,82.8 863.4,82.8 908.7,82.8 909.7,82.8 910.7,82.8 910.7,81.8 910.7,80.8 
		910.7,71.4 910.7,70.4 910.7,69.4 	"/>
</g>
<g>
	<path fill="#FFFFFF" d="M78.5,14.5L53.7,39.3L28.9,14.5L18.4,25l24.8,24.8L18.4,74.5L28.9,85l24.8-24.8L78.5,85L89,74.5L64.2,49.8
		L89,25L78.5,14.5z M88.3,74.5l-9.8,9.8L53.7,59.5L28.9,84.3l-9.8-9.8l24.8-24.8L19.2,25l9.8-9.8L53.7,40l24.8-24.8l9.8,9.8
		L63.5,49.8L88.3,74.5z"/>
	<path fill="#FFFFFF" d="M159.5,42.1l-15.1-25.6h-17.9l25.1,40.6v26h15.4v-26l25-40.6h-17.5L159.5,42.1z M191,16.9l-24.6,39.9l0,0.1
		v25.6H152V57l-24.7-40h16.8l15.4,26.1l15.2-26.1H191z"/>
	<path fill="#FFFFFF" d="M251.7,25.4c-2.7-3.2-6.1-5.7-10.1-7.6c-4-1.9-8.5-2.8-13.4-2.8c-5,0-9.5,1-13.4,2.8
		c-4,1.9-7.3,4.4-10.1,7.6c-2.7,3.2-4.8,6.9-6.3,11.1c-1.4,4.2-2.2,8.6-2.2,13.3c0,4.7,0.7,9.2,2.2,13.4c1.4,4.2,3.6,7.9,6.3,11.1
		c2.7,3.2,6.2,5.7,10.1,7.6c4,1.8,8.5,2.8,13.4,2.8c4.9,0,9.5-0.9,13.4-2.8c4-1.8,7.4-4.4,10.1-7.6c2.7-3.2,4.8-6.9,6.3-11.1
		c1.4-4.2,2.2-8.7,2.2-13.4c0-4.6-0.7-9.1-2.2-13.3C256.5,32.3,254.4,28.6,251.7,25.4z M257.5,62.9c-1.4,4.1-3.5,7.8-6.2,10.9
		c-2.7,3.1-6,5.6-9.9,7.4c-3.9,1.8-8.3,2.7-13.2,2.7c-4.9,0-9.3-0.9-13.2-2.7c-3.9-1.8-7.2-4.3-9.9-7.4c-2.7-3.1-4.8-6.8-6.2-10.9
		c-1.4-4.1-2.1-8.5-2.1-13.2c0-4.6,0.7-9,2.1-13.1c1.4-4.1,3.5-7.8,6.2-10.9c2.7-3.1,6-5.6,9.9-7.5c3.9-1.8,8.4-2.8,13.2-2.8
		c4.9,0,9.3,0.9,13.2,2.8c3.9,1.8,7.2,4.4,9.9,7.5c2.7,3.1,4.8,6.8,6.2,10.9c1.4,4.1,2.1,8.5,2.1,13.1
		C259.6,54.4,258.9,58.8,257.5,62.9z"/>
	<path fill="#FFFFFF" d="M241.1,34.4c-1.3-2-3.1-3.6-5.3-4.8c-2.1-1.2-4.7-1.8-7.7-1.8c-3,0-5.6,0.6-7.7,1.8
		c-2.2,1.2-3.9,2.8-5.3,4.8c-1.4,2.1-2.4,4.4-3.1,7.1c-0.7,2.7-1,5.5-1,8.3c0,2.8,0.3,5.6,1,8.3c0.7,2.6,1.7,5,3.1,7.1
		c1.3,2,3.1,3.6,5.3,4.8c2.1,1.2,4.7,1.8,7.7,1.8c3,0,5.6-0.6,7.7-1.8c2.2-1.2,3.9-2.8,5.3-4.8c1.4-2.1,2.4-4.4,3.1-7.1
		c0.7-2.7,1-5.5,1-8.3c0-2.8-0.3-5.6-1-8.3C243.6,38.9,242.5,36.5,241.1,34.4z M243.7,57.9c-0.7,2.6-1.7,4.9-3,6.9
		c-1.3,1.9-3,3.5-5.1,4.6c-2.1,1.1-4.6,1.7-7.5,1.7c-2.9,0-5.4-0.6-7.5-1.7c-2.1-1.2-3.8-2.7-5.1-4.6c-1.4-2-2.4-4.3-3-6.9
		c-0.7-2.6-1-5.4-1-8.1c0-2.8,0.3-5.5,1-8.1c0.7-2.6,1.7-4.9,3-6.9c1.3-1.9,3-3.5,5.1-4.6c2.1-1.1,4.6-1.7,7.5-1.7
		c2.9,0,5.4,0.6,7.5,1.7c2.1,1.2,3.8,2.7,5.1,4.6c1.4,2,2.4,4.3,3,6.9c0.7,2.6,1,5.4,1,8.1C244.8,52.5,244.4,55.3,243.7,57.9z"/>
	<path fill="#FFFFFF" d="M312.7,54.9c0,2-0.1,4.1-0.3,6.1c-0.2,1.8-0.7,3.5-1.5,4.9c-0.8,1.3-1.9,2.5-3.5,3.4
		c-1.6,0.9-4,1.4-7.1,1.4c-3.1,0-5.5-0.5-7.1-1.4c-1.6-0.9-2.7-2-3.5-3.4c-0.8-1.4-1.3-3.1-1.5-4.9c-0.2-2.1-0.3-4.1-0.3-6.1V16.4
		h-15.4v42c0,4.3,0.7,8.1,2,11.3c1.3,3.3,3.3,6,5.8,8.3c2.5,2.2,5.4,3.9,8.9,5c3.3,1,7.1,1.6,11.1,1.6c4,0,7.8-0.5,11.1-1.6
		c3.4-1.1,6.4-2.7,8.9-5c2.5-2.2,4.4-5,5.8-8.3c1.3-3.2,2-7,2-11.3v-42h-15.4V54.9z M313.2,54.9V16.9h14.4v41.5c0,4.2-0.7,8-2,11.1
		c-1.3,3.2-3.2,5.9-5.6,8.1c-2.4,2.2-5.3,3.8-8.7,4.8c-3.3,1-7,1.6-11,1.6s-7.7-0.5-11-1.6c-3.4-1.1-6.3-2.7-8.7-4.8
		c-2.4-2.2-4.3-4.9-5.6-8.1c-1.3-3.2-2-6.9-2-11.1V16.9h14.4v37.9c0,2,0.1,4.1,0.3,6.2c0.2,1.9,0.7,3.6,1.5,5.1
		c0.8,1.4,2,2.6,3.7,3.6c1.7,0.9,4.1,1.4,7.4,1.4c3.2,0,5.7-0.5,7.4-1.4c1.7-0.9,2.9-2.1,3.7-3.6c0.8-1.5,1.3-3.2,1.5-5.1
		C313.1,59,313.2,56.9,313.2,54.9z"/>
	<path fill="#FFFFFF" d="M409.6,16.4H395l-25.6,66.6h16.1l5.8-16.4h21.6l5.8,16.4h16.5l-25.1-65.2L409.6,16.4z M419.1,82.6
		l-5.8-16.4H391l-5.8,16.4h-15l24.8-64.5l0.4-1.1h14l25.3,65.6H419.1z"/>
	<path fill="#FFFFFF" d="M395.2,54.4h14l-7-20L395.2,54.4z M395.9,53.9l6.3-18l6.3,18H395.9z"/>
	<path fill="#FFFFFF" d="M506.2,74c-0.5-2.8-0.8-6-0.8-9.6c0-2.7-0.4-5-1.1-6.9c-0.7-1.9-1.6-3.5-2.8-4.7c-0.7-0.8-1.5-1.4-2.2-1.9
		c0.7-0.5,1.4-1.1,2.1-1.8c1.3-1.4,2.5-3.2,3.5-5.4c1-2.2,1.5-5,1.5-8.3c0-5.9-2-10.7-5.9-14.1c-3.8-3.3-9.5-5-16.9-5h-31.9v66.6
		h15.4V57.5h13.8c2.2,0,4,0.3,5.3,0.8c1.2,0.5,2.1,1.2,2.8,2.2c0.7,1.1,1.3,2.5,1.6,4.2c0.3,1.9,0.5,4.3,0.5,7
		c0,1.6,0.1,3.2,0.2,4.9c0.2,2,0.8,3.8,1.8,5.4l0.7,1.1h18l-3.4-3.8C507.6,78.6,506.8,77.2,506.2,74z M493.9,82.6l-0.5-0.8
		c-1-1.6-1.5-3.3-1.7-5.2c-0.1-1.7-0.2-3.3-0.2-4.9c0-2.7-0.2-5.1-0.5-7.1c-0.3-1.8-0.9-3.3-1.6-4.4c-0.7-1.1-1.7-1.9-3-2.4
		c-1.4-0.6-3.2-0.8-5.5-0.8h-14.3v25.6h-14.4V16.9h31.4c7.2,0,12.8,1.6,16.5,4.9c3.8,3.3,5.7,7.9,5.7,13.7c0,3.2-0.5,5.9-1.5,8.1
		c-0.9,2.1-2.1,3.9-3.4,5.2c-0.8,0.8-1.6,1.5-2.3,2l-0.3,0.2l0.3,0.2c0.9,0.5,1.7,1.2,2.5,2c1.1,1.2,2,2.7,2.7,4.5
		c0.7,1.8,1,4.1,1,6.7c0,3.5,0.3,6.8,0.8,9.6c0.6,3.3,1.5,4.8,2.1,5.5l2.7,2.9H493.9z"/>
	<path fill="#FFFFFF" d="M489.1,30.8c-0.8-0.6-1.7-0.9-2.8-1.1c-1.2-0.2-2.5-0.3-3.7-0.3h-15.9v15.9h16.1c3,0,5.3-0.7,6.7-2
		c1.4-1.3,2.1-3.4,2.1-6.2c0-1.7-0.2-3.1-0.7-4.1C490.4,32,489.8,31.3,489.1,30.8z M489.1,42.8c-1.4,1.3-3.5,1.9-6.4,1.9h-15.6V29.8
		h15.4c1.2,0,2.5,0.1,3.7,0.3c1,0.2,1.9,0.5,2.6,1c0.7,0.5,1.2,1.1,1.6,2c0.4,0.9,0.7,2.2,0.7,3.9C491.1,39.7,490.4,41.6,489.1,42.8
		z"/>
	<path fill="#FFFFFF" d="M543.4,55.5h31.3V42.1h-31.3V30.3h33.8V16.4H528v66.6h49.8V69.2h-34.5V55.5z M577.4,69.7v12.9h-48.8V16.9
		h48.2v12.9h-33.8v12.8h31.3V55h-31.3v14.7H577.4z"/>
	<path fill="#FFFFFF" d="M672,41.2h-23.8V16.4h-15.4v66.6h15.4v-28H672v28h15.4V16.4H672V41.2z M672.5,16.9h14.4v65.6h-14.4v-28
		h-24.8v28h-14.4V16.9h14.4v24.7h24.8V16.9z"/>
	<path fill="#FFFFFF" d="M726.4,55.5h31.3V42.1h-31.3V30.3h33.8V16.4H711v66.6h49.8V69.2h-34.5V55.5z M760.3,69.7v12.9h-48.8V16.9
		h48.2v12.9h-33.8v12.8h31.3V55h-31.3v14.7H760.3z"/>
	<path fill="#FFFFFF" d="M838.3,74c-0.5-2.8-0.8-6.1-0.8-9.6c0-2.7-0.4-5-1.1-6.9c-0.7-1.9-1.6-3.5-2.8-4.7
		c-0.7-0.8-1.5-1.4-2.2-1.9c0.7-0.5,1.4-1.1,2.1-1.8c1.3-1.4,2.5-3.2,3.5-5.4c1-2.2,1.5-5,1.5-8.3c0-5.9-2-10.7-5.9-14.1
		c-3.8-3.3-9.5-5-16.9-5h-31.9v66.6h15.4V57.5H813c2.2,0,4,0.3,5.3,0.8c1.2,0.5,2.1,1.2,2.8,2.2c0.7,1.1,1.3,2.5,1.6,4.2
		c0.3,1.9,0.5,4.3,0.5,7c0,1.6,0.1,3.2,0.2,4.9c0.2,2,0.8,3.8,1.8,5.4l0.7,1.1h18l-3.4-3.8C839.7,78.6,838.9,77.2,838.3,74z
		 M826,82.6l-0.5-0.8c-1-1.6-1.5-3.3-1.7-5.2c-0.1-1.7-0.2-3.3-0.2-4.9c0-2.7-0.2-5.1-0.5-7.1c-0.3-1.8-0.9-3.3-1.6-4.4
		c-0.7-1.1-1.7-1.9-3-2.4c-1.4-0.6-3.2-0.8-5.5-0.8h-14.3v25.6h-14.4V16.9h31.4c7.2,0,12.8,1.6,16.5,4.9c3.8,3.3,5.7,7.9,5.7,13.7
		c0,3.2-0.5,5.9-1.5,8.1c-1,2.1-2.1,3.9-3.4,5.2c-0.8,0.8-1.6,1.5-2.3,2l-0.3,0.2l0.3,0.2c0.9,0.5,1.7,1.2,2.5,2.1
		c1.1,1.2,2,2.7,2.7,4.5c0.7,1.8,1,4.1,1,6.7c0,3.5,0.3,6.8,0.8,9.6c0.6,3.3,1.5,4.8,2.1,5.5l2.7,2.9H826z"/>
	<path fill="#FFFFFF" d="M821.2,30.8c-0.8-0.6-1.7-0.9-2.8-1.1c-1.2-0.2-2.5-0.3-3.7-0.3h-15.9v15.9h16.1c3,0,5.3-0.7,6.7-2
		c1.4-1.3,2.1-3.4,2.1-6.2c0-1.7-0.2-3.1-0.7-4.1C822.5,32,821.9,31.3,821.2,30.8z M821.2,42.8c-1.4,1.3-3.5,1.9-6.4,1.9h-15.6V29.8
		h15.4c1.2,0,2.5,0.1,3.7,0.3c1,0.2,1.9,0.5,2.6,1c0.7,0.5,1.2,1.1,1.6,2c0.4,0.9,0.7,2.2,0.7,3.9C823.2,39.7,822.5,41.6,821.2,42.8
		z"/>
	<path fill="#FFFFFF" d="M876.5,69.2V55.5h31.3V42.1h-31.3V30.3h33.8V16.4h-49.2v66.6H911V69.2H876.5z M910.5,82.6h-48.8V16.9h48.2
		v12.9H876v12.8h31.3V55H876v14.7h34.5V82.6z"/>
</g>
</svg>
