<?xml version="1.0" encoding="utf-8"?>
<!-- Generator: Adobe Illustrator 17.1.0, SVG Export Plug-In . SVG Version: 6.00 Build 0)  -->
<!DOCTYPE svg PUBLIC "-//W3C//DTD SVG 1.1//EN" "http://www.w3.org/Graphics/SVG/1.1/DTD/svg11.dtd">
<svg version="1.1" id="outlines" xmlns="http://www.w3.org/2000/svg" xmlns:xlink="http://www.w3.org/1999/xlink" x="0px" y="0px"
	 viewBox="0 0 950 104" enable-background="new 0 0 950 104" xml:space="preserve">
<g>
	<polygon fill="#222224" points="53.7,58.6 27.6,84.7 18.8,75.9 44.9,49.8 18.8,23.6 27.6,14.8 53.7,40.9 79.8,14.8 88.7,23.6 
		62.6,49.8 88.7,75.9 79.8,84.7 	"/>
	<path fill="#222224" d="M79.8,15.9l7.8,7.8L61.5,49.8l26.1,26.1l-7.8,7.8L53.7,57.5L27.6,83.6l-7.8-7.8l26.1-26.1L19.8,23.6
		l7.8-7.8L53.7,42L79.8,15.9 M79.8,13.7l-1.1,1.1L53.7,39.9L28.7,14.8l-1.1-1.1l-1.1,1.1l-7.8,7.8l-1.1,1.1l1.1,1.1l25.1,25
		L18.8,74.8l-1.1,1.1l1.1,1.1l7.8,7.8l1.1,1.1l1.1-1.1l25.1-25l25.1,25l1.1,1.1l1.1-1.1l7.8-7.8l1.1-1.1l-1.1-1.1L63.6,49.8l25.1-25
		l1.1-1.1l-1.1-1.1l-7.8-7.8L79.8,13.7L79.8,13.7z"/>
</g>
<g>
	<g>
		<polygon fill="#222224" points="149,81.6 149,56.7 125.1,17.9 139.5,17.9 155.5,45.1 171.3,17.9 185.2,17.9 161.4,56.7 
			161.4,81.6 		"/>
		<path fill="#222224" d="M183.9,18.7l-23.2,37.8v24.4h-10.9V56.5l-23.3-37.8h12.6l16.4,27.8l16.2-27.8H183.9 M186.6,17.2h-2.7
			h-12.2h-0.9l-0.4,0.7l-14.9,25.6l-15.1-25.6l-0.4-0.7h-0.9h-12.6h-2.7l1.4,2.3l23.1,37.4v23.9v1.5h1.5h10.9h1.5v-1.5V56.9l23-37.4
			L186.6,17.2L186.6,17.2z"/>
	</g>
	<g>
		<path fill="#222224" d="M225.1,83c-4.7,0-9-0.9-12.8-2.6c-3.8-1.7-7-4.2-9.6-7.2c-2.6-3-4.6-6.6-6-10.6c-1.4-4-2.1-8.3-2.1-12.9
			c0-4.5,0.7-8.8,2.1-12.8c1.4-4,3.4-7.6,6-10.6c2.6-3,5.8-5.5,9.6-7.2c3.8-1.8,8.1-2.7,12.8-2.7c4.7,0,9,0.9,12.8,2.7
			c3.8,1.8,7,4.2,9.6,7.2c2.6,3,4.6,6.6,6,10.6c1.4,4,2.1,8.3,2.1,12.8c0,4.5-0.7,8.9-2.1,12.9c-1.4,4-3.4,7.6-6,10.6
			c-2.6,3-5.8,5.4-9.6,7.2C234.2,82.2,229.9,83,225.1,83z M225.1,26.8c-3.2,0-5.9,0.6-8.2,1.9c-2.3,1.3-4.2,3-5.6,5.1
			c-1.5,2.1-2.5,4.6-3.2,7.4c-0.7,2.8-1.1,5.6-1.1,8.5c0,2.9,0.4,5.8,1.1,8.5c0.7,2.7,1.8,5.2,3.2,7.4c1.4,2.1,3.3,3.8,5.6,5.1
			c2.3,1.3,5,1.9,8.2,1.9c3.2,0,5.9-0.6,8.2-1.9c2.3-1.3,4.2-3,5.6-5.1c1.5-2.1,2.5-4.6,3.2-7.4c0.7-2.8,1.1-5.6,1.1-8.5
			c0-2.9-0.4-5.7-1.1-8.5c-0.7-2.7-1.8-5.2-3.2-7.4c-1.4-2.1-3.3-3.8-5.6-5.1C231.1,27.5,228.3,26.8,225.1,26.8z"/>
		<path fill="#222224" d="M225.1,17.2c4.6,0,8.8,0.9,12.5,2.6c3.7,1.7,6.8,4.1,9.4,7c2.6,3,4.5,6.4,5.9,10.4c1.4,3.9,2,8.1,2,12.5
			c0,4.5-0.7,8.7-2,12.6c-1.4,3.9-3.3,7.4-5.9,10.4c-2.6,3-5.7,5.3-9.4,7c-3.7,1.7-7.8,2.6-12.5,2.6c-4.6,0-8.8-0.9-12.5-2.6
			c-3.7-1.7-6.8-4-9.4-7c-2.6-3-4.5-6.4-5.9-10.4c-1.4-3.9-2-8.1-2-12.6c0-4.4,0.7-8.6,2-12.5c1.4-3.9,3.3-7.4,5.9-10.4
			c2.6-3,5.7-5.3,9.4-7C216.3,18.1,220.5,17.2,225.1,17.2 M225.1,73.4c3.3,0,6.2-0.7,8.6-2c2.4-1.3,4.4-3.1,5.9-5.4
			c1.5-2.2,2.6-4.8,3.3-7.6c0.7-2.8,1.1-5.7,1.1-8.7s-0.4-5.9-1.1-8.7c-0.7-2.8-1.8-5.4-3.3-7.6c-1.5-2.2-3.5-4-5.9-5.4
			c-2.4-1.3-5.3-2-8.6-2s-6.2,0.7-8.6,2c-2.4,1.3-4.4,3.1-5.9,5.4c-1.5,2.2-2.6,4.8-3.3,7.6c-0.7,2.8-1.1,5.7-1.1,8.7
			s0.4,5.9,1.1,8.7c0.7,2.8,1.8,5.4,3.3,7.6c1.5,2.2,3.5,4,5.9,5.4C219,72.8,221.8,73.4,225.1,73.4 M225.1,15.7
			c-4.8,0-9.3,0.9-13.1,2.8c-3.9,1.8-7.2,4.3-9.8,7.4c-2.7,3.1-4.7,6.7-6.2,10.8c-1.4,4.1-2.1,8.5-2.1,13c0,4.6,0.7,9,2.1,13.1
			c1.4,4.1,3.5,7.8,6.2,10.8c2.7,3.1,6,5.6,9.9,7.4c3.9,1.8,8.3,2.7,13.1,2.7c4.8,0,9.2-0.9,13.1-2.7c3.9-1.8,7.2-4.3,9.9-7.4
			c2.7-3.1,4.7-6.7,6.2-10.8c1.4-4.1,2.1-8.5,2.1-13.1c0-4.6-0.7-8.9-2.1-13c-1.4-4.1-3.5-7.8-6.2-10.8c-2.7-3.1-6-5.6-9.8-7.4
			C234.4,16.6,230,15.7,225.1,15.7L225.1,15.7z M225.1,71.9c-3,0-5.7-0.6-7.8-1.8c-2.2-1.2-4-2.9-5.4-4.9c-1.4-2.1-2.5-4.5-3.1-7.1
			c-0.7-2.7-1-5.5-1-8.3c0-2.8,0.4-5.6,1-8.3c0.7-2.7,1.7-5.1,3.1-7.1c1.4-2,3.2-3.7,5.4-4.9c2.2-1.2,4.8-1.8,7.8-1.8
			c3,0,5.7,0.6,7.8,1.8c2.2,1.2,4,2.9,5.4,4.9c1.4,2.1,2.5,4.5,3.1,7.1c0.7,2.7,1,5.5,1,8.3c0,2.8-0.4,5.6-1,8.3
			c-0.7,2.7-1.7,5.1-3.1,7.1c-1.4,2-3.2,3.7-5.4,4.9C230.8,71.3,228.2,71.9,225.1,71.9L225.1,71.9z"/>
	</g>
	<g>
		<path fill="#222224" d="M298.3,83c-3.9,0-7.5-0.5-10.7-1.5c-3.2-1-6-2.6-8.3-4.6c-2.3-2.1-4.1-4.7-5.4-7.7
			c-1.2-3-1.9-6.6-1.9-10.7V17.9h12.4v36.9c0,2.1,0.1,4.2,0.3,6.3c0.2,2,0.7,3.9,1.6,5.5c0.9,1.6,2.3,2.9,4.1,3.9
			c1.8,1,4.5,1.6,7.9,1.6c3.4,0,6-0.5,7.9-1.6c1.8-1,3.2-2.4,4.1-3.9c0.9-1.6,1.5-3.5,1.6-5.5c0.2-2.1,0.3-4.2,0.3-6.3V17.9h12.4
			v40.5c0,4.1-0.6,7.7-1.9,10.7c-1.3,3-3.1,5.6-5.4,7.7c-2.3,2.1-5.1,3.6-8.3,4.6C305.8,82.5,302.2,83,298.3,83z"/>
		<path fill="#222224" d="M323.8,18.7v39.8c0,4-0.6,7.5-1.8,10.4c-1.2,3-2.9,5.4-5.2,7.4c-2.2,2-4.9,3.5-8,4.5
			c-3.1,1-6.6,1.5-10.4,1.5c-3.8,0-7.3-0.5-10.4-1.5c-3.1-1-5.8-2.5-8-4.5c-2.2-2-4-4.5-5.2-7.4c-1.2-3-1.8-6.4-1.8-10.4V18.7h10.9
			v36.2c0,2.1,0.1,4.2,0.3,6.4c0.2,2.1,0.8,4.1,1.7,5.8c1,1.7,2.4,3.1,4.4,4.2c1.9,1.1,4.7,1.7,8.2,1.7c3.5,0,6.3-0.6,8.2-1.7
			c1.9-1.1,3.4-2.5,4.4-4.2c1-1.7,1.5-3.6,1.7-5.8c0.2-2.1,0.3-4.3,0.3-6.4V18.7H323.8 M325.3,17.2h-1.5h-10.9h-1.5v1.5v36.2
			c0,2-0.1,4.1-0.3,6.2c-0.2,1.9-0.7,3.7-1.6,5.2c-0.8,1.5-2.1,2.7-3.8,3.6c-1.7,1-4.2,1.5-7.5,1.5c-3.3,0-5.8-0.5-7.5-1.5
			c-1.7-1-3-2.2-3.8-3.6c-0.9-1.5-1.4-3.3-1.6-5.2c-0.2-2.1-0.3-4.2-0.3-6.2V18.7v-1.5h-1.5h-10.9h-1.5v1.5v39.8
			c0,4.2,0.7,7.9,1.9,11c1.3,3.2,3.2,5.8,5.6,8c2.4,2.1,5.3,3.7,8.6,4.8c3.3,1,6.9,1.5,10.9,1.5c4,0,7.6-0.5,10.9-1.5
			c3.3-1,6.2-2.7,8.6-4.8c2.4-2.1,4.3-4.8,5.6-8c1.3-3.1,1.9-6.8,1.9-11V18.7V17.2L325.3,17.2z"/>
	</g>
	<g>
		<path fill="#222224" d="M417.8,81.6L412,65.1h-23.7l-5.8,16.4h-12.8L394,17.9h12.6l24.5,63.6H417.8z M408.6,55.4l-8.4-24.1
			l-8.5,24.1H408.6z"/>
		<path fill="#222224" d="M406.1,18.7L430,80.8h-11.7l-5.8-16.4h-24.8l-5.8,16.4h-11.2l23.8-62.1H406.1 M390.7,56.1h19l-9.3-26.7
			h-0.3L390.7,56.1 M407.1,17.2h-1h-11.6h-1l-0.4,1l-23.8,62.1l-0.8,2h2.2h11.2h1.1l0.4-1l5.5-15.4h22.7l5.5,15.4l0.4,1h1.1H430h2.2
			l-0.8-2l-23.9-62.1L407.1,17.2L407.1,17.2z M392.8,54.6l7.4-21l7.3,21H392.8L392.8,54.6z"/>
	</g>
	<g>
		<path fill="#222224" d="M489.5,81.6l-0.2-0.4c-0.9-1.4-1.4-3-1.5-4.8c-0.1-1.6-0.2-3.2-0.2-4.8c0-2.8-0.2-5.2-0.5-7.2
			c-0.3-1.9-0.9-3.6-1.8-4.8c-0.8-1.2-2-2.1-3.4-2.7c-1.5-0.6-3.5-0.9-5.9-0.9h-15.3v25.6h-12.4V17.9h30.4c7,0,12.3,1.6,15.9,4.6
			c3.6,3.1,5.4,7.4,5.4,12.9c0,3.1-0.5,5.6-1.4,7.7c-0.9,2-2,3.7-3.2,4.9c-1.2,1.2-2.4,2.2-3.7,2.7c-0.2,0.1-0.4,0.2-0.6,0.3
			c0.4,0.1,0.7,0.3,1.1,0.4c1.2,0.5,2.3,1.3,3.3,2.4c1,1.1,1.8,2.5,2.5,4.2c0.6,1.7,1,3.8,1,6.4c0,3.6,0.3,6.9,0.8,9.8
			c0.5,2.8,1.3,4.9,2.4,6l1.1,1.3H489.5z M477.7,46.2c3.3,0,5.8-0.8,7.4-2.3c1.6-1.5,2.5-3.8,2.5-6.9c0-1.9-0.3-3.4-0.8-4.5
			c-0.5-1.1-1.2-2-2.1-2.6c-0.9-0.6-2-1.1-3.2-1.3c-1.3-0.2-2.6-0.3-3.9-0.3h-16.9v17.9H477.7z"/>
		<path fill="#222224" d="M478.7,18.7c6.8,0,12,1.5,15.4,4.4c3.4,3,5.1,7.1,5.1,12.4c0,3-0.4,5.4-1.3,7.4c-0.9,1.9-1.9,3.5-3,4.7
			c-1.2,1.2-2.3,2-3.4,2.6c-1.1,0.5-2,0.9-2.5,1v0.2c0.9,0.1,1.9,0.4,3,0.9c1.1,0.5,2.1,1.2,3,2.2c0.9,1,1.7,2.3,2.3,4
			c0.6,1.6,0.9,3.7,0.9,6.1c0,3.7,0.3,7,0.8,10c0.6,3,1.4,5.1,2.6,6.4h-11.7c-0.8-1.3-1.3-2.8-1.4-4.4c-0.1-1.6-0.2-3.2-0.2-4.7
			c0-2.8-0.2-5.3-0.5-7.4c-0.3-2.1-1-3.8-1.9-5.1c-0.9-1.4-2.2-2.4-3.8-3c-1.6-0.6-3.6-1-6.1-1h-16v25.6H449V18.7H478.7 M459.9,47
			h17.8c3.5,0,6.1-0.8,7.9-2.5c1.8-1.7,2.7-4.1,2.7-7.4c0-2-0.3-3.6-0.9-4.8c-0.6-1.2-1.4-2.2-2.4-2.9c-1-0.7-2.2-1.2-3.5-1.4
			c-1.3-0.2-2.7-0.3-4-0.3h-17.7V47 M478.7,17.2H449h-1.5v1.5v62.1v1.5h1.5h10.9h1.5v-1.5V56.7h14.5c2.3,0,4.2,0.3,5.6,0.8
			c1.3,0.5,2.3,1.3,3.1,2.5c0.8,1.2,1.4,2.7,1.7,4.5c0.3,2,0.5,4.4,0.5,7.1c0,1.6,0.1,3.2,0.2,4.8c0.2,1.8,0.7,3.6,1.6,5.1l0.4,0.7
			h0.8h11.7h3.4l-2.3-2.5c-1-1.1-1.7-3-2.2-5.7c-0.5-2.9-0.8-6.1-0.8-9.7c0-2.6-0.3-4.8-1-6.6c-0.7-1.8-1.5-3.3-2.6-4.4
			c-1-1-2-1.8-3.1-2.4c1-0.6,2-1.4,3-2.4c1.3-1.3,2.4-3,3.3-5.1c1-2.1,1.4-4.8,1.4-8c0-5.7-1.9-10.2-5.7-13.5
			C491.3,18.8,485.8,17.2,478.7,17.2L478.7,17.2z M461.4,29.1h16.2c1.3,0,2.6,0.1,3.8,0.3c1.1,0.2,2,0.6,2.9,1.2
			c0.8,0.5,1.4,1.3,1.9,2.3c0.5,1,0.7,2.5,0.7,4.2c0,2.9-0.7,5-2.2,6.3c-1.5,1.4-3.8,2.1-6.9,2.1h-16.3V29.1L461.4,29.1z"/>
	</g>
	<g>
		<polygon fill="#222224" points="522.5,81.6 522.5,17.9 568.8,17.9 568.8,28.8 534.9,28.8 534.9,43.6 566.2,43.6 566.2,54 
			534.9,54 534.9,70.7 569.4,70.7 569.4,81.6 		"/>
		<path fill="#222224" d="M568,18.7v9.4h-33.8v16.3h31.3v8.9h-31.3v18.2h34.5v9.4h-45.3V18.7H568 M569.5,17.2H568h-44.7h-1.5v1.5
			v62.1v1.5h1.5h45.3h1.5v-1.5v-9.4v-1.5h-1.5h-33V54.7h29.8h1.5v-1.5v-8.9v-1.5h-1.5h-29.8V29.6H568h1.5v-1.5v-9.4V17.2L569.5,17.2
			z"/>
	</g>
	<g>
		<polygon fill="#222224" points="666.5,81.6 666.5,53.6 639.7,53.6 639.7,81.6 627.4,81.6 627.4,17.9 639.7,17.9 639.7,42.7 
			666.5,42.7 666.5,17.9 678.9,17.9 678.9,81.6 		"/>
		<path fill="#222224" d="M678.1,18.7v62.1h-10.9v-28H639v28h-10.9V18.7H639v24.7h28.3V18.7H678.1 M679.6,17.2h-1.5h-10.9h-1.5v1.5
			v23.2h-25.3V18.7v-1.5H639h-10.9h-1.5v1.5v62.1v1.5h1.5H639h1.5v-1.5V54.3h25.3v26.5v1.5h1.5h10.9h1.5v-1.5V18.7V17.2L679.6,17.2z
			"/>
	</g>
	<g>
		<polygon fill="#222224" points="703.5,81.6 703.5,17.9 749.7,17.9 749.7,28.8 715.9,28.8 715.9,43.6 747.2,43.6 747.2,54 
			715.9,54 715.9,70.7 750.3,70.7 750.3,81.6 		"/>
		<path fill="#222224" d="M749,18.7v9.4h-33.8v16.3h31.3v8.9h-31.3v18.2h34.5v9.4h-45.3V18.7H749 M750.5,17.2H749h-44.7h-1.5v1.5
			v62.1v1.5h1.5h45.3h1.5v-1.5v-9.4v-1.5h-1.5h-33V54.7h29.8h1.5v-1.5v-8.9v-1.5h-1.5h-29.8V29.6H749h1.5v-1.5v-9.4V17.2L750.5,17.2
			z"/>
	</g>
	<g>
		<path fill="#222224" d="M812.6,81.6l-0.2-0.4c-0.9-1.4-1.4-3-1.5-4.8c-0.1-1.6-0.2-3.2-0.2-4.8c0-2.8-0.2-5.2-0.5-7.2
			c-0.3-1.9-0.9-3.6-1.8-4.8c-0.8-1.2-2-2.1-3.4-2.7c-1.5-0.6-3.5-0.9-5.9-0.9h-15.3v25.6h-12.4V17.9h30.4c7,0,12.3,1.6,15.9,4.6
			c3.6,3.1,5.4,7.4,5.4,12.9c0,3.1-0.5,5.6-1.4,7.7c-0.9,2-2,3.7-3.2,4.9c-1.2,1.2-2.5,2.2-3.7,2.7c-0.2,0.1-0.4,0.2-0.6,0.3
			c0.4,0.1,0.7,0.3,1.1,0.4c1.2,0.5,2.3,1.3,3.3,2.4c1,1.1,1.8,2.5,2.5,4.2c0.6,1.7,1,3.8,1,6.4c0,3.6,0.3,6.9,0.8,9.8
			c0.5,2.8,1.3,4.9,2.4,6l1.1,1.3H812.6z M800.8,46.2c3.3,0,5.8-0.8,7.4-2.3c1.6-1.5,2.5-3.8,2.5-6.9c0-1.9-0.3-3.4-0.8-4.5
			c-0.5-1.1-1.2-2-2.1-2.6c-0.9-0.6-2-1.1-3.2-1.3c-1.3-0.2-2.6-0.3-3.9-0.3h-16.9v17.9H800.8z"/>
		<path fill="#222224" d="M801.8,18.7c6.8,0,12,1.5,15.4,4.4c3.4,3,5.1,7.1,5.1,12.4c0,3-0.4,5.4-1.3,7.4c-0.9,1.9-1.9,3.5-3,4.7
			c-1.2,1.2-2.3,2-3.4,2.6c-1.1,0.5-2,0.9-2.5,1v0.2c0.9,0.1,1.9,0.4,3,0.9c1.1,0.5,2.1,1.2,3,2.2c0.9,1,1.7,2.3,2.3,4
			c0.6,1.6,0.9,3.7,0.9,6.1c0,3.7,0.3,7,0.8,10c0.6,3,1.4,5.1,2.6,6.4H813c-0.8-1.3-1.3-2.8-1.4-4.4c-0.1-1.6-0.2-3.2-0.2-4.7
			c0-2.8-0.2-5.3-0.5-7.4c-0.3-2.1-1-3.8-1.9-5.1c-0.9-1.4-2.2-2.4-3.8-3c-1.6-0.6-3.6-1-6.1-1h-16v25.6h-10.9V18.7H801.8 M783,47
			h17.8c3.5,0,6.1-0.8,7.9-2.5c1.8-1.7,2.7-4.1,2.7-7.4c0-2-0.3-3.6-0.9-4.8c-0.6-1.2-1.4-2.2-2.4-2.9c-1-0.7-2.2-1.2-3.5-1.4
			c-1.3-0.2-2.7-0.3-4-0.3H783V47 M801.8,17.2h-29.7h-1.5v1.5v62.1v1.5h1.5H783h1.5v-1.5V56.7H799c2.3,0,4.2,0.3,5.6,0.9
			c1.3,0.5,2.3,1.3,3.1,2.5c0.8,1.2,1.4,2.7,1.7,4.5c0.3,2,0.5,4.4,0.5,7.1c0,1.5,0.1,3.2,0.2,4.8c0.2,1.8,0.7,3.6,1.6,5.1l0.4,0.7
			h0.8h11.7h3.4l-2.3-2.5c-1-1.1-1.7-3-2.2-5.7c-0.5-2.9-0.8-6.1-0.8-9.7c0-2.6-0.3-4.8-1-6.6c-0.7-1.8-1.5-3.3-2.6-4.4
			c-1-1-2-1.9-3.1-2.4c1-0.6,2-1.4,3-2.4c1.3-1.3,2.4-3,3.3-5.1c1-2.1,1.4-4.8,1.4-8c0-5.7-1.9-10.2-5.7-13.5
			C814.5,18.8,808.9,17.2,801.8,17.2L801.8,17.2z M784.5,29.1h16.2c1.3,0,2.6,0.1,3.8,0.3c1.1,0.2,2.1,0.6,2.9,1.2
			c0.8,0.5,1.4,1.3,1.9,2.3c0.5,1,0.7,2.5,0.7,4.2c0,2.9-0.7,5-2.2,6.3c-1.5,1.4-3.8,2.1-6.9,2.1h-16.3V29.1L784.5,29.1z"/>
	</g>
	<g>
		<polygon fill="#222224" points="845.6,81.6 845.6,17.9 891.9,17.9 891.9,28.8 858,28.8 858,43.6 889.3,43.6 889.3,54 858,54 
			858,70.7 892.5,70.7 892.5,81.6 		"/>
		<path fill="#222224" d="M891.1,18.7v9.4h-33.8v16.3h31.3v8.9h-31.3v18.2h34.5v9.4h-45.3V18.7H891.1 M892.6,17.2h-1.5h-44.7h-1.5
			v1.5v62.1v1.5h1.5h45.3h1.5v-1.5v-9.4v-1.5h-1.5h-33V54.7h29.8h1.5v-1.5v-8.9v-1.5h-1.5h-29.8V29.6h32.3h1.5v-1.5v-9.4V17.2
			L892.6,17.2z"/>
	</g>
</g>
</svg>
