<?xml version="1.0" encoding="utf-8"?>
<!-- Generator: Adobe Illustrator 17.1.0, SVG Export Plug-In . SVG Version: 6.00 Build 0)  -->
<!DOCTYPE svg PUBLIC "-//W3C//DTD SVG 1.1//EN" "http://www.w3.org/Graphics/SVG/1.1/DTD/svg11.dtd">
<svg version="1.1" id="outlines" xmlns="http://www.w3.org/2000/svg" xmlns:xlink="http://www.w3.org/1999/xlink" x="0px" y="0px"
	 viewBox="0 0 950 104" enable-background="new 0 0 950 104" xml:space="preserve">
<polygon fill="#222224" points="87.6,24.2 79.8,16.4 53.7,42.5 27.6,16.4 19.8,24.2 45.9,50.3 19.8,76.4 27.6,84.2 53.7,58.1 
	79.8,84.2 87.6,76.4 61.5,50.3 "/>
<g>
	<path fill="#222224" stroke="#222224" stroke-width="2" stroke-miterlimit="10" d="M149.8,55.9l-23.3-37.8h12.6L155.5,46l16.2-27.8
		h12.2l-23.2,37.8v24.4h-10.9V55.9z"/>
	<path fill="#222224" stroke="#222224" stroke-width="2" stroke-miterlimit="10" d="M225.1,16.7c4.6,0,8.8,0.9,12.5,2.6
		c3.7,1.7,6.8,4.1,9.4,7c2.6,3,4.5,6.4,5.9,10.4c1.4,3.9,2,8.1,2,12.5c0,4.5-0.7,8.7-2,12.6c-1.4,3.9-3.3,7.4-5.9,10.4
		c-2.6,3-5.7,5.3-9.4,7c-3.7,1.7-7.8,2.6-12.5,2.6c-4.6,0-8.8-0.9-12.5-2.6c-3.7-1.7-6.8-4-9.4-7c-2.6-3-4.5-6.4-5.9-10.4
		c-1.4-3.9-2-8.1-2-12.6c0-4.4,0.7-8.6,2-12.5c1.4-3.9,3.3-7.4,5.9-10.4c2.6-3,5.7-5.3,9.4-7C216.3,17.6,220.5,16.7,225.1,16.7z
		 M225.1,25.6c-3.3,0-6.2,0.7-8.6,2c-2.4,1.3-4.4,3.1-5.9,5.4c-1.5,2.2-2.6,4.8-3.3,7.6c-0.7,2.8-1.1,5.7-1.1,8.7s0.4,5.9,1.1,8.7
		c0.7,2.8,1.8,5.4,3.3,7.6c1.5,2.2,3.5,4,5.9,5.4c2.4,1.3,5.3,2,8.6,2s6.2-0.7,8.6-2c2.4-1.3,4.4-3.1,5.9-5.4
		c1.5-2.2,2.6-4.8,3.3-7.6c0.7-2.8,1.1-5.7,1.1-8.7s-0.4-5.9-1.1-8.7c-0.7-2.8-1.8-5.4-3.3-7.6c-1.5-2.2-3.5-4-5.9-5.4
		C231.3,26.2,228.4,25.6,225.1,25.6z"/>
	<path fill="#222224" stroke="#222224" stroke-width="2" stroke-miterlimit="10" d="M272.8,18.2h10.9v36.2c0,2.1,0.1,4.2,0.3,6.4
		c0.2,2.1,0.8,4.1,1.7,5.8c1,1.7,2.4,3.1,4.4,4.2c1.9,1.1,4.7,1.7,8.2,1.7c3.5,0,6.3-0.6,8.2-1.7c1.9-1.1,3.4-2.5,4.4-4.2
		c1-1.7,1.5-3.6,1.7-5.8c0.2-2.1,0.3-4.3,0.3-6.4V18.2h10.9v39.8c0,4-0.6,7.5-1.8,10.4c-1.2,3-2.9,5.4-5.2,7.4c-2.2,2-4.9,3.5-8,4.5
		c-3.1,1-6.6,1.5-10.4,1.5c-3.8,0-7.3-0.5-10.4-1.5c-3.1-1-5.8-2.5-8-4.5c-2.2-2-4-4.5-5.2-7.4c-1.2-3-1.8-6.4-1.8-10.4V18.2z"/>
	<path fill="#222224" stroke="#222224" stroke-width="2" stroke-miterlimit="10" d="M394.5,18.2h11.6L430,80.3h-11.7l-5.8-16.4
		h-24.8l-5.8,16.4h-11.2L394.5,18.2z M390.7,55.6h19l-9.3-26.7h-0.3L390.7,55.6z"/>
	<path fill="#222224" stroke="#222224" stroke-width="2" stroke-miterlimit="10" d="M449,18.2h29.7c6.8,0,12,1.5,15.4,4.4
		c3.4,3,5.1,7.1,5.1,12.4c0,3-0.4,5.4-1.3,7.4c-0.9,1.9-1.9,3.5-3,4.7c-1.2,1.2-2.3,2-3.4,2.6s-2,0.9-2.5,1v0.2
		c0.9,0.1,1.9,0.4,3,0.9c1.1,0.5,2.1,1.2,3,2.2s1.7,2.3,2.3,4c0.6,1.6,0.9,3.7,0.9,6.1c0,3.7,0.3,7,0.8,10c0.6,3,1.4,5.1,2.6,6.4
		h-11.7c-0.8-1.3-1.3-2.8-1.4-4.4c-0.1-1.6-0.2-3.2-0.2-4.7c0-2.8-0.2-5.3-0.5-7.4s-1-3.8-1.9-5.1c-0.9-1.4-2.2-2.4-3.8-3
		c-1.6-0.6-3.6-1-6.1-1h-16v25.6H449V18.2z M459.9,46.4h17.8c3.5,0,6.1-0.8,7.9-2.5c1.8-1.7,2.7-4.1,2.7-7.4c0-2-0.3-3.6-0.9-4.8
		c-0.6-1.2-1.4-2.2-2.4-2.9c-1-0.7-2.2-1.2-3.5-1.4c-1.3-0.2-2.7-0.3-4-0.3h-17.7V46.4z"/>
	<path fill="#222224" stroke="#222224" stroke-width="2" stroke-miterlimit="10" d="M523.3,18.2H568v9.4h-33.8v16.3h31.3v8.9h-31.3
		v18.2h34.5v9.4h-45.3V18.2z"/>
	<path fill="#222224" stroke="#222224" stroke-width="2" stroke-miterlimit="10" d="M628.1,18.2H639v24.7h28.3V18.2h10.9v62.1h-10.9
		v-28H639v28h-10.9V18.2z"/>
	<path fill="#222224" stroke="#222224" stroke-width="2" stroke-miterlimit="10" d="M704.2,18.2H749v9.4h-33.8v16.3h31.3v8.9h-31.3
		v18.2h34.5v9.4h-45.3V18.2z"/>
	<path fill="#222224" stroke="#222224" stroke-width="2" stroke-miterlimit="10" d="M772.1,18.2h29.7c6.8,0,12,1.5,15.4,4.4
		c3.4,3,5.1,7.1,5.1,12.4c0,3-0.4,5.4-1.3,7.4c-0.9,1.9-1.9,3.5-3,4.7c-1.2,1.2-2.3,2-3.4,2.6s-2,0.9-2.5,1v0.2
		c0.9,0.1,1.9,0.4,3,0.9c1.1,0.5,2.1,1.2,3,2.2c0.9,1,1.7,2.3,2.3,4c0.6,1.6,0.9,3.7,0.9,6.1c0,3.7,0.3,7,0.8,10
		c0.6,3,1.4,5.1,2.6,6.4H813c-0.8-1.3-1.3-2.8-1.4-4.4c-0.1-1.6-0.2-3.2-0.2-4.7c0-2.8-0.2-5.3-0.5-7.4c-0.3-2.1-1-3.8-1.9-5.1
		c-0.9-1.4-2.2-2.4-3.8-3c-1.6-0.6-3.6-1-6.1-1h-16v25.6h-10.9V18.2z M783,46.4h17.8c3.5,0,6.1-0.8,7.9-2.5c1.8-1.7,2.7-4.1,2.7-7.4
		c0-2-0.3-3.6-0.9-4.8c-0.6-1.2-1.4-2.2-2.4-2.9c-1-0.7-2.2-1.2-3.5-1.4c-1.3-0.2-2.7-0.3-4-0.3H783V46.4z"/>
	<path fill="#222224" stroke="#222224" stroke-width="2" stroke-miterlimit="10" d="M846.4,18.2h44.7v9.4h-33.8v16.3h31.3v8.9h-31.3
		v18.2h34.5v9.4h-45.3V18.2z"/>
</g>
</svg>
